<mxfile host="app.diagrams.net" modified="2020-11-12T14:10:28.742Z" agent="5.0 (Macintosh; Intel Mac OS X 10_11_6) AppleWebKit/537.36 (KHTML, like Gecko) Chrome/86.0.4240.183 Safari/537.36" etag="z5tjdLEtRGOCZdxaCeuG" version="13.9.7" type="github">
  <diagram id="8yLx29vHONw-lsog6S0P" name="Page-1">
    <mxGraphModel dx="1351" dy="974" grid="1" gridSize="10" guides="1" tooltips="1" connect="1" arrows="1" fold="1" page="1" pageScale="1" pageWidth="827" pageHeight="1169" math="0" shadow="0">
      <root>
        <mxCell id="0" />
        <mxCell id="1" parent="0" />
        <mxCell id="XXKYVTEHt2XIAceLT8YC-32" value="" style="rounded=0;whiteSpace=wrap;html=1;fontSize=14;fillColor=#f5f5f5;strokeColor=#666666;fontColor=#333333;" vertex="1" parent="1">
          <mxGeometry x="40" y="120" width="650" height="40" as="geometry" />
        </mxCell>
        <mxCell id="XXKYVTEHt2XIAceLT8YC-31" value="" style="rounded=0;whiteSpace=wrap;html=1;fontSize=20;fillColor=#d5e8d4;strokeColor=#82b366;" vertex="1" parent="1">
          <mxGeometry x="120" y="170" width="90" height="40" as="geometry" />
        </mxCell>
        <mxCell id="XXKYVTEHt2XIAceLT8YC-2" value="" style="endArrow=none;dashed=1;html=1;" edge="1" parent="1">
          <mxGeometry width="50" height="50" relative="1" as="geometry">
            <mxPoint x="230" y="120" as="sourcePoint" />
            <mxPoint x="230" y="620" as="targetPoint" />
          </mxGeometry>
        </mxCell>
        <mxCell id="XXKYVTEHt2XIAceLT8YC-3" value="" style="endArrow=none;dashed=1;html=1;" edge="1" parent="1">
          <mxGeometry width="50" height="50" relative="1" as="geometry">
            <mxPoint x="310" y="120" as="sourcePoint" />
            <mxPoint x="310" y="620" as="targetPoint" />
          </mxGeometry>
        </mxCell>
        <mxCell id="XXKYVTEHt2XIAceLT8YC-4" value="" style="endArrow=none;dashed=1;html=1;" edge="1" parent="1">
          <mxGeometry width="50" height="50" relative="1" as="geometry">
            <mxPoint x="410" y="120" as="sourcePoint" />
            <mxPoint x="410" y="620" as="targetPoint" />
          </mxGeometry>
        </mxCell>
        <mxCell id="XXKYVTEHt2XIAceLT8YC-7" value="Strikes" style="text;html=1;strokeColor=none;fillColor=none;align=center;verticalAlign=middle;whiteSpace=wrap;rounded=0;fontSize=14;fontStyle=1" vertex="1" parent="1">
          <mxGeometry x="250" y="100" width="40" height="20" as="geometry" />
        </mxCell>
        <mxCell id="XXKYVTEHt2XIAceLT8YC-8" value="IV справедливая" style="text;html=1;strokeColor=none;fillColor=none;align=center;verticalAlign=middle;whiteSpace=wrap;rounded=0;fontStyle=1" vertex="1" parent="1">
          <mxGeometry x="340" y="90" width="40" height="20" as="geometry" />
        </mxCell>
        <mxCell id="XXKYVTEHt2XIAceLT8YC-10" value="&lt;b&gt;&lt;font style=&quot;font-size: 18px&quot;&gt;789&lt;/font&gt;&lt;/b&gt; &lt;br&gt;30.91" style="text;html=1;strokeColor=none;fillColor=none;align=center;verticalAlign=middle;whiteSpace=wrap;rounded=0;" vertex="1" parent="1">
          <mxGeometry x="50" y="130" width="80" height="20" as="geometry" />
        </mxCell>
        <mxCell id="XXKYVTEHt2XIAceLT8YC-11" value="&lt;b&gt;&lt;font style=&quot;font-size: 18px&quot;&gt;795&lt;/font&gt;&lt;/b&gt; &lt;br&gt;31.31" style="text;html=1;strokeColor=none;fillColor=none;align=center;verticalAlign=middle;whiteSpace=wrap;rounded=0;" vertex="1" parent="1">
          <mxGeometry x="120" y="130" width="80" height="20" as="geometry" />
        </mxCell>
        <mxCell id="XXKYVTEHt2XIAceLT8YC-12" value="77000" style="text;html=1;align=center;verticalAlign=middle;resizable=0;points=[];autosize=1;fontStyle=1;fontSize=20;" vertex="1" parent="1">
          <mxGeometry x="235" y="125" width="70" height="30" as="geometry" />
        </mxCell>
        <mxCell id="XXKYVTEHt2XIAceLT8YC-13" value="29.23" style="text;html=1;align=center;verticalAlign=middle;resizable=0;points=[];autosize=1;fontSize=20;fontStyle=1;" vertex="1" parent="1">
          <mxGeometry x="325" y="125" width="70" height="30" as="geometry" />
        </mxCell>
        <mxCell id="XXKYVTEHt2XIAceLT8YC-15" value="Потенциал" style="text;html=1;strokeColor=none;fillColor=none;align=center;verticalAlign=middle;whiteSpace=wrap;rounded=0;fontSize=14;fontStyle=1" vertex="1" parent="1">
          <mxGeometry x="430" y="96" width="40" height="20" as="geometry" />
        </mxCell>
        <mxCell id="XXKYVTEHt2XIAceLT8YC-16" value="76" style="text;html=1;align=center;verticalAlign=middle;resizable=0;points=[];autosize=1;fontSize=20;fontStyle=1;fillColor=#f8cecc;strokeColor=#b85450;" vertex="1" parent="1">
          <mxGeometry x="434" y="125" width="40" height="30" as="geometry" />
        </mxCell>
        <mxCell id="XXKYVTEHt2XIAceLT8YC-19" value="" style="endArrow=none;dashed=1;html=1;" edge="1" parent="1">
          <mxGeometry width="50" height="50" relative="1" as="geometry">
            <mxPoint x="500" y="120" as="sourcePoint" />
            <mxPoint x="500" y="620" as="targetPoint" />
          </mxGeometry>
        </mxCell>
        <mxCell id="XXKYVTEHt2XIAceLT8YC-20" value="" style="rounded=0;whiteSpace=wrap;html=1;fontSize=20;fillColor=#f8cecc;strokeColor=#b85450;" vertex="1" parent="1">
          <mxGeometry x="505" y="120" width="90" height="40" as="geometry" />
        </mxCell>
        <mxCell id="XXKYVTEHt2XIAceLT8YC-21" value="&lt;b&gt;&lt;font style=&quot;font-size: 18px&quot;&gt;789&lt;/font&gt;&lt;/b&gt; &lt;br&gt;31.91" style="text;html=1;strokeColor=none;fillColor=none;align=center;verticalAlign=middle;whiteSpace=wrap;rounded=0;" vertex="1" parent="1">
          <mxGeometry x="510" y="130" width="80" height="20" as="geometry" />
        </mxCell>
        <mxCell id="XXKYVTEHt2XIAceLT8YC-22" value="&lt;b&gt;&lt;font style=&quot;font-size: 18px&quot;&gt;795&lt;/font&gt;&lt;/b&gt; &lt;br&gt;32.31" style="text;html=1;strokeColor=none;fillColor=none;align=center;verticalAlign=middle;whiteSpace=wrap;rounded=0;" vertex="1" parent="1">
          <mxGeometry x="595" y="130" width="80" height="20" as="geometry" />
        </mxCell>
        <mxCell id="XXKYVTEHt2XIAceLT8YC-23" value="&lt;b&gt;&lt;font style=&quot;font-size: 18px&quot;&gt;789&lt;/font&gt;&lt;/b&gt; &lt;br&gt;28.91" style="text;html=1;strokeColor=none;fillColor=none;align=center;verticalAlign=middle;whiteSpace=wrap;rounded=0;" vertex="1" parent="1">
          <mxGeometry x="50" y="180" width="80" height="20" as="geometry" />
        </mxCell>
        <mxCell id="XXKYVTEHt2XIAceLT8YC-24" value="&lt;b&gt;&lt;font style=&quot;font-size: 18px&quot;&gt;795&lt;/font&gt;&lt;/b&gt; &lt;br&gt;29.31" style="text;html=1;strokeColor=none;fillColor=none;align=center;verticalAlign=middle;whiteSpace=wrap;rounded=0;" vertex="1" parent="1">
          <mxGeometry x="119" y="180" width="80" height="20" as="geometry" />
        </mxCell>
        <mxCell id="XXKYVTEHt2XIAceLT8YC-25" value="77000" style="text;html=1;align=center;verticalAlign=middle;resizable=0;points=[];autosize=1;fontStyle=1;fontSize=20;" vertex="1" parent="1">
          <mxGeometry x="235" y="175" width="70" height="30" as="geometry" />
        </mxCell>
        <mxCell id="XXKYVTEHt2XIAceLT8YC-26" value="31.23" style="text;html=1;align=center;verticalAlign=middle;resizable=0;points=[];autosize=1;fontSize=20;fontStyle=1" vertex="1" parent="1">
          <mxGeometry x="325" y="175" width="70" height="30" as="geometry" />
        </mxCell>
        <mxCell id="XXKYVTEHt2XIAceLT8YC-27" value="-96" style="text;html=1;align=center;verticalAlign=middle;resizable=0;points=[];autosize=1;fontSize=20;fontStyle=1;fillColor=#d5e8d4;strokeColor=#82b366;" vertex="1" parent="1">
          <mxGeometry x="434" y="175" width="40" height="30" as="geometry" />
        </mxCell>
        <mxCell id="XXKYVTEHt2XIAceLT8YC-29" value="&lt;b&gt;&lt;font style=&quot;font-size: 18px&quot;&gt;789&lt;/font&gt;&lt;/b&gt; &lt;br&gt;31.91" style="text;html=1;strokeColor=none;fillColor=none;align=center;verticalAlign=middle;whiteSpace=wrap;rounded=0;" vertex="1" parent="1">
          <mxGeometry x="510" y="180" width="80" height="20" as="geometry" />
        </mxCell>
        <mxCell id="XXKYVTEHt2XIAceLT8YC-30" value="&lt;b&gt;&lt;font style=&quot;font-size: 18px&quot;&gt;795&lt;/font&gt;&lt;/b&gt; &lt;br&gt;32.31" style="text;html=1;strokeColor=none;fillColor=none;align=center;verticalAlign=middle;whiteSpace=wrap;rounded=0;" vertex="1" parent="1">
          <mxGeometry x="580" y="180" width="80" height="20" as="geometry" />
        </mxCell>
        <mxCell id="XXKYVTEHt2XIAceLT8YC-33" value="Опцион" style="text;html=1;strokeColor=none;fillColor=none;align=center;verticalAlign=middle;whiteSpace=wrap;rounded=0;fontSize=14;" vertex="1" parent="1">
          <mxGeometry x="40" y="20" width="40" height="20" as="geometry" />
        </mxCell>
        <mxCell id="XXKYVTEHt2XIAceLT8YC-34" value="Напраление" style="text;html=1;strokeColor=none;fillColor=none;align=center;verticalAlign=middle;whiteSpace=wrap;rounded=0;fontSize=14;" vertex="1" parent="1">
          <mxGeometry x="195" y="20" width="40" height="20" as="geometry" />
        </mxCell>
        <mxCell id="XXKYVTEHt2XIAceLT8YC-35" value="Кол-во" style="text;html=1;strokeColor=none;fillColor=none;align=center;verticalAlign=middle;whiteSpace=wrap;rounded=0;fontSize=14;" vertex="1" parent="1">
          <mxGeometry x="350" y="20" width="70" height="20" as="geometry" />
        </mxCell>
        <mxCell id="XXKYVTEHt2XIAceLT8YC-36" value="IV" style="text;html=1;strokeColor=none;fillColor=none;align=center;verticalAlign=middle;whiteSpace=wrap;rounded=0;fontSize=14;" vertex="1" parent="1">
          <mxGeometry x="485" y="20" width="40" height="20" as="geometry" />
        </mxCell>
        <mxCell id="XXKYVTEHt2XIAceLT8YC-37" value="" style="rounded=0;whiteSpace=wrap;html=1;fontSize=14;" vertex="1" parent="1">
          <mxGeometry x="20" y="50" width="120" height="30" as="geometry" />
        </mxCell>
        <mxCell id="XXKYVTEHt2XIAceLT8YC-38" value="" style="verticalLabelPosition=bottom;verticalAlign=top;html=1;shape=mxgraph.basic.rect;fillColor2=none;strokeWidth=1;size=20;indent=5;fontSize=14;" vertex="1" parent="1">
          <mxGeometry x="171.5" y="50" width="95" height="30" as="geometry" />
        </mxCell>
        <mxCell id="XXKYVTEHt2XIAceLT8YC-39" value="" style="verticalLabelPosition=bottom;verticalAlign=top;html=1;shape=mxgraph.basic.rect;fillColor2=none;strokeWidth=1;size=20;indent=5;fontSize=14;" vertex="1" parent="1">
          <mxGeometry x="325" y="50" width="120" height="30" as="geometry" />
        </mxCell>
        <mxCell id="XXKYVTEHt2XIAceLT8YC-40" value="" style="verticalLabelPosition=bottom;verticalAlign=top;html=1;shape=mxgraph.basic.rect;fillColor2=none;strokeWidth=1;size=20;indent=5;fontSize=14;" vertex="1" parent="1">
          <mxGeometry x="470" y="50" width="70" height="30" as="geometry" />
        </mxCell>
        <mxCell id="XXKYVTEHt2XIAceLT8YC-41" value="+0.1" style="text;html=1;align=center;verticalAlign=middle;resizable=0;points=[];autosize=1;fontSize=14;fillColor=#d5e8d4;strokeColor=#82b366;" vertex="1" parent="1">
          <mxGeometry x="570" y="40" width="40" height="20" as="geometry" />
        </mxCell>
        <mxCell id="XXKYVTEHt2XIAceLT8YC-42" value="-0.1" style="text;html=1;align=center;verticalAlign=middle;resizable=0;points=[];autosize=1;fontSize=14;fillColor=#f8cecc;strokeColor=#b85450;" vertex="1" parent="1">
          <mxGeometry x="570" y="60" width="40" height="20" as="geometry" />
        </mxCell>
        <mxCell id="XXKYVTEHt2XIAceLT8YC-44" value="Старт" style="text;html=1;align=center;verticalAlign=middle;resizable=0;points=[];autosize=1;fontSize=26;fillColor=#ffe6cc;strokeColor=#d79b00;fontStyle=1" vertex="1" parent="1">
          <mxGeometry x="625" y="40" width="90" height="40" as="geometry" />
        </mxCell>
      </root>
    </mxGraphModel>
  </diagram>
</mxfile>
